<svg aria-label="Variables por tipo de paradigma" class="chart-svg" role="img" viewbox="0 0 900 500"><rect fill="#ffffff" height="100%" width="100%"></rect><line stroke="#dddddd" stroke-width="1" x1="70" x2="875" y1="400.0" y2="400.0"></line><text fill="#666" font-size="11" text-anchor="end" x="60" y="404.0">0.00</text><line stroke="#dddddd" stroke-width="1" x1="70" x2="875" y1="355.6" y2="355.6"></line><text fill="#666" font-size="11" text-anchor="end" x="60" y="359.6">10.00</text><line stroke="#dddddd" stroke-width="1" x1="70" x2="875" y1="311.2" y2="311.2"></line><text fill="#666" font-size="11" text-anchor="end" x="60" y="315.2">20.00</text><line stroke="#dddddd" stroke-width="1" x1="70" x2="875" y1="266.9" y2="266.9"></line><text fill="#666" font-size="11" text-anchor="end" x="60" y="270.9">30.00</text><line stroke="#dddddd" stroke-width="1" x1="70" x2="875" y1="222.5" y2="222.5"></line><text fill="#666" font-size="11" text-anchor="end" x="60" y="226.5">40.00</text><line stroke="#dddddd" stroke-width="1" x1="70" x2="875" y1="178.1" y2="178.1"></line><text fill="#666" font-size="11" text-anchor="end" x="60" y="182.1">50.00</text><line stroke="#dddddd" stroke-width="1" x1="70" x2="875" y1="133.8" y2="133.8"></line><text fill="#666" font-size="11" text-anchor="end" x="60" y="137.8">60.00</text><line stroke="#dddddd" stroke-width="1" x1="70" x2="875" y1="89.4" y2="89.4"></line><text fill="#666" font-size="11" text-anchor="end" x="60" y="93.4">70.00</text><line stroke="#dddddd" stroke-width="1" x1="70" x2="875" y1="45.0" y2="45.0"></line><text fill="#666" font-size="11" text-anchor="end" x="60" y="49.0">80.00</text><rect fill="#4472C4" height="300.4" width="20.7" x="86.1" y="99.6"></rect><text fill="#555" font-size="10" text-anchor="middle" x="96.4" y="95.6">67.70</text><rect fill="#ED7D31" height="93.2" width="20.7" x="109.1" y="306.8"></rect><text fill="#555" font-size="10" text-anchor="middle" x="119.4" y="302.8">21.00</text><rect fill="#A5A5A5" height="50.1" width="20.7" x="132.1" y="349.9"></rect><text fill="#555" font-size="10" text-anchor="middle" x="142.4" y="345.9">11.30</text><text fill="#666" font-size="11" text-anchor="end" transform="rotate(-50 127.5,445)" x="127.5" y="445">autoridad</text><rect fill="#4472C4" height="279.1" width="20.7" x="201.1" y="120.9"></rect><text fill="#555" font-size="10" text-anchor="middle" x="211.4" y="116.9">62.90</text><rect fill="#ED7D31" height="147.8" width="20.7" x="224.1" y="252.2"></rect><text fill="#555" font-size="10" text-anchor="middle" x="234.4" y="248.2">33.30</text><rect fill="#A5A5A5" height="16.9" width="20.7" x="247.1" y="383.1"></rect><text fill="#555" font-size="10" text-anchor="middle" x="257.4" y="379.1">3.80</text><text fill="#666" font-size="11" text-anchor="end" transform="rotate(-50 242.5,445)" x="242.5" y="445">ciudadano</text><rect fill="#4472C4" height="95.4" width="20.7" x="316.1" y="304.6"></rect><text fill="#555" font-size="10" text-anchor="middle" x="326.5" y="300.6">21.50</text><rect fill="#ED7D31" height="300.4" width="20.7" x="339.1" y="99.6"></rect><text fill="#555" font-size="10" text-anchor="middle" x="349.5" y="95.6">67.70</text><rect fill="#A5A5A5" height="47.9" width="20.7" x="362.1" y="352.1"></rect><text fill="#555" font-size="10" text-anchor="middle" x="372.5" y="348.1">10.80</text><text fill="#666" font-size="11" text-anchor="end" transform="rotate(-50 357.5,445)" x="357.5" y="445">coordinac institucional</text><rect fill="#4472C4" height="207.7" width="20.7" x="431.1" y="192.3"></rect><text fill="#555" font-size="10" text-anchor="middle" x="441.5" y="188.3">46.80</text><rect fill="#ED7D31" height="190.8" width="20.7" x="454.1" y="209.2"></rect><text fill="#555" font-size="10" text-anchor="middle" x="464.5" y="205.2">43.00</text><rect fill="#A5A5A5" height="45.3" width="20.7" x="477.1" y="354.7"></rect><text fill="#555" font-size="10" text-anchor="middle" x="487.5" y="350.7">10.20</text><text fill="#666" font-size="11" text-anchor="end" transform="rotate(-50 472.5,445)" x="472.5" y="445">innov y flexibilidad</text><rect fill="#4472C4" height="310.2" width="20.7" x="546.1" y="89.8"></rect><text fill="#555" font-size="10" text-anchor="middle" x="556.5" y="85.8">69.90</text><rect fill="#ED7D31" height="116.7" width="20.7" x="569.1" y="283.3"></rect><text fill="#555" font-size="10" text-anchor="middle" x="579.5" y="279.3">26.30</text><rect fill="#A5A5A5" height="16.9" width="20.7" x="592.1" y="383.1"></rect><text fill="#555" font-size="10" text-anchor="middle" x="602.5" y="379.1">3.80</text><text fill="#666" font-size="11" text-anchor="end" transform="rotate(-50 587.5,445)" x="587.5" y="445">objetivo principal</text><rect fill="#4472C4" height="188.6" width="20.7" x="661.1" y="211.4"></rect><text fill="#555" font-size="10" text-anchor="middle" x="671.5" y="207.4">42.50</text><rect fill="#ED7D31" height="221.9" width="20.7" x="684.1" y="178.1"></rect><text fill="#555" font-size="10" text-anchor="middle" x="694.5" y="174.1">50.00</text><rect fill="#A5A5A5" height="33.3" width="20.7" x="707.1" y="366.7"></rect><text fill="#555" font-size="10" text-anchor="middle" x="717.5" y="362.7">7.50</text><text fill="#666" font-size="11" text-anchor="end" transform="rotate(-50 702.5,445)" x="702.5" y="445">talento humano</text><rect fill="#4472C4" height="229.0" width="20.7" x="776.1" y="171.0"></rect><text fill="#555" font-size="10" text-anchor="middle" x="786.5" y="167.0">51.60</text><rect fill="#ED7D31" height="181.5" width="20.7" x="799.1" y="218.5"></rect><text fill="#555" font-size="10" text-anchor="middle" x="809.5" y="214.5">40.90</text><rect fill="#A5A5A5" height="33.3" width="20.7" x="822.1" y="366.7"></rect><text fill="#555" font-size="10" text-anchor="middle" x="832.5" y="362.7">7.50</text><text fill="#666" font-size="11" text-anchor="end" transform="rotate(-50 817.5,445)" x="817.5" y="445">transpar y rendición</text><rect fill="#4472C4" height="10" width="10" x="310" y="472"></rect><text fill="#555" font-size="12" x="326" y="482">empresarial</text><rect fill="#ED7D31" height="10" width="10" x="440" y="472"></rect><text fill="#555" font-size="12" x="456" y="482">gobernanza</text><rect fill="#A5A5A5" height="10" width="10" x="570" y="472"></rect><text fill="#555" font-size="12" x="586" y="482">patrimonialista</text></svg>