<svg aria-label="Examen diagnóstico" class="bar-chart-svg" role="img" viewbox="0 0 760 360"><line stroke="#dddddd" stroke-width="1" x1="90" x2="740" y1="270.0" y2="270.0"></line><text fill="#666" font-size="12" text-anchor="end" x="80" y="274.0">0.0</text><line stroke="#dddddd" stroke-width="1" x1="90" x2="740" y1="241.2" y2="241.2"></line><text fill="#666" font-size="12" text-anchor="end" x="80" y="245.2">0.5</text><line stroke="#dddddd" stroke-width="1" x1="90" x2="740" y1="212.5" y2="212.5"></line><text fill="#666" font-size="12" text-anchor="end" x="80" y="216.5">1.0</text><line stroke="#dddddd" stroke-width="1" x1="90" x2="740" y1="183.8" y2="183.8"></line><text fill="#666" font-size="12" text-anchor="end" x="80" y="187.8">1.5</text><line stroke="#dddddd" stroke-width="1" x1="90" x2="740" y1="155.0" y2="155.0"></line><text fill="#666" font-size="12" text-anchor="end" x="80" y="159.0">2.0</text><line stroke="#dddddd" stroke-width="1" x1="90" x2="740" y1="126.2" y2="126.2"></line><text fill="#666" font-size="12" text-anchor="end" x="80" y="130.2">2.5</text><line stroke="#dddddd" stroke-width="1" x1="90" x2="740" y1="97.5" y2="97.5"></line><text fill="#666" font-size="12" text-anchor="end" x="80" y="101.5">3.0</text><line stroke="#dddddd" stroke-width="1" x1="90" x2="740" y1="68.8" y2="68.8"></line><text fill="#666" font-size="12" text-anchor="end" x="80" y="72.8">3.5</text><line stroke="#dddddd" stroke-width="1" x1="90" x2="740" y1="40.0" y2="40.0"></line><text fill="#666" font-size="12" text-anchor="end" x="80" y="44.0">4.0</text><rect fill="#6fb246" height="178.2" width="70" x="140.0" y="91.8"></rect><text fill="#555" font-size="13" text-anchor="middle" x="175.0" y="85.8">3.1</text><rect fill="#f07c2c" height="138.0" width="70" x="260.0" y="132.0"></rect><text fill="#555" font-size="13" text-anchor="middle" x="295.0" y="126.0">2.4</text><rect fill="#a6a6a6" height="120.8" width="70" x="380.0" y="149.2"></rect><text fill="#555" font-size="13" text-anchor="middle" x="415.0" y="143.2">2.1</text><rect fill="#ffc000" height="80.5" width="70" x="500.0" y="189.5"></rect><text fill="#555" font-size="13" text-anchor="middle" x="535.0" y="183.5">1.4</text><rect fill="#5b9bd5" height="109.2" width="70" x="620.0" y="160.8"></rect><text fill="#555" font-size="13" text-anchor="middle" x="655.0" y="154.8">1.9</text><line stroke="#cccccc" x1="90" x2="740" y1="270" y2="270"></line></svg>